<svg width="40" height="40" viewBox="0 0 40 40" fill="none" xmlns="http://www.w3.org/2000/svg">
<g id="comments-icon" clip-path="url(#clip0_187_282)">
<path id="Vector" d="M8.21059 31.7742C6.66117 30.2288 5.43242 28.3925 4.59495 26.3707C3.75748 24.3489 3.32779 22.1816 3.33058 19.9932C3.33058 10.7914 10.7897 3.33224 19.9916 3.33224C29.1934 3.33224 36.6526 10.7914 36.6526 19.9932C36.6526 29.1951 29.1934 36.6542 19.9916 36.6542H3.33058L8.21059 31.7742ZM13.3272 21.6593C13.3272 23.4268 14.0293 25.122 15.2791 26.3718C16.529 27.6216 18.2241 28.3237 19.9916 28.3237C21.7591 28.3237 23.4542 27.6216 24.704 26.3718C25.9538 25.122 26.656 23.4268 26.656 21.6593H13.3272Z" fill="#607B96"/>
</g>
<defs>
<clipPath id="clip0_187_282">
<rect width="39.9864" height="39.9864" fill="white"/>
</clipPath>
</defs>
</svg>
