<svg width="194" height="29" viewBox="0 0 194 29" fill="none" xmlns="http://www.w3.org/2000/svg">
<path d="M12.1795 7.09L13.5445 9.235L3.08945 15.61L13.5445 22L12.0595 24.1L0.614453 16.945V14.245L12.1795 7.09ZM50.286 19.225C50.286 20.425 49.981 21.49 49.371 22.42C48.771 23.34 47.901 24.065 46.761 24.595C45.621 25.115 44.231 25.375 42.591 25.375C41.011 25.375 39.601 25.135 38.361 24.655C37.121 24.175 36.066 23.515 35.196 22.675L36.891 20.77C37.611 21.44 38.436 21.97 39.366 22.36C40.296 22.75 41.381 22.945 42.621 22.945C43.431 22.945 44.181 22.815 44.871 22.555C45.571 22.285 46.131 21.885 46.551 21.355C46.981 20.815 47.196 20.14 47.196 19.33C47.196 18.68 47.066 18.13 46.806 17.68C46.556 17.23 46.111 16.83 45.471 16.48C44.831 16.13 43.936 15.785 42.786 15.445C41.386 15.025 40.186 14.56 39.186 14.05C38.196 13.53 37.436 12.895 36.906 12.145C36.386 11.395 36.126 10.475 36.126 9.385C36.126 8.315 36.421 7.375 37.011 6.565C37.601 5.745 38.411 5.105 39.441 4.645C40.481 4.185 41.666 3.955 42.996 3.955C44.446 3.955 45.711 4.165 46.791 4.585C47.881 4.995 48.861 5.59 49.731 6.37L48.081 8.23C47.351 7.58 46.561 7.11 45.711 6.82C44.861 6.52 44.001 6.37 43.131 6.37C42.401 6.37 41.736 6.48 41.136 6.7C40.536 6.91 40.056 7.225 39.696 7.645C39.346 8.065 39.171 8.6 39.171 9.25C39.171 9.82 39.326 10.31 39.636 10.72C39.946 11.12 40.471 11.495 41.211 11.845C41.951 12.185 42.956 12.545 44.226 12.925C45.336 13.245 46.351 13.645 47.271 14.125C48.191 14.605 48.921 15.25 49.461 16.06C50.011 16.86 50.286 17.915 50.286 19.225ZM57.7743 2.545V11.245C58.4043 10.435 59.1593 9.83 60.0393 9.43C60.9293 9.02 61.8343 8.815 62.7543 8.815C64.2743 8.815 65.3943 9.23 66.1143 10.06C66.8343 10.88 67.1943 12.025 67.1943 13.495V25H64.3143V13.75C64.3143 12.8 64.1093 12.115 63.6993 11.695C63.2993 11.265 62.6593 11.05 61.7793 11.05C61.2193 11.05 60.6843 11.175 60.1743 11.425C59.6743 11.675 59.2193 11.995 58.8093 12.385C58.3993 12.765 58.0543 13.16 57.7743 13.57V25H54.8943V2.86L57.7743 2.545ZM79.0476 8.815C80.5576 8.815 81.8226 9.155 82.8426 9.835C83.8726 10.515 84.6476 11.475 85.1676 12.715C85.6976 13.945 85.9626 15.4 85.9626 17.08C85.9626 18.71 85.6926 20.15 85.1526 21.4C84.6226 22.64 83.8426 23.615 82.8126 24.325C81.7826 25.025 80.5176 25.375 79.0176 25.375C77.5176 25.375 76.2476 25.035 75.2076 24.355C74.1776 23.675 73.3976 22.715 72.8676 21.475C72.3376 20.235 72.0726 18.78 72.0726 17.11C72.0726 15.47 72.3376 14.03 72.8676 12.79C73.4076 11.54 74.1976 10.565 75.2376 9.865C76.2776 9.165 77.5476 8.815 79.0476 8.815ZM79.0476 11.11C77.7476 11.11 76.7676 11.6 76.1076 12.58C75.4476 13.55 75.1176 15.06 75.1176 17.11C75.1176 19.14 75.4426 20.645 76.0926 21.625C76.7426 22.595 77.7176 23.08 79.0176 23.08C80.3176 23.08 81.2926 22.595 81.9426 21.625C82.5926 20.645 82.9176 19.13 82.9176 17.08C82.9176 15.04 82.5926 13.535 81.9426 12.565C81.3026 11.595 80.3376 11.11 79.0476 11.11ZM102.526 21.37C102.526 22 102.626 22.46 102.826 22.75C103.026 23.03 103.341 23.24 103.771 23.38L103.096 25.36C102.376 25.27 101.751 25.055 101.221 24.715C100.691 24.375 100.296 23.855 100.036 23.155C99.4659 23.885 98.7459 24.44 97.8759 24.82C97.0059 25.19 96.0609 25.375 95.0409 25.375C93.4509 25.375 92.1959 24.925 91.2759 24.025C90.3559 23.125 89.8959 21.94 89.8959 20.47C89.8959 18.82 90.5359 17.555 91.8159 16.675C93.1059 15.795 94.9559 15.355 97.3659 15.355H99.6609V14.155C99.6609 13.065 99.3359 12.29 98.6859 11.83C98.0459 11.37 97.1509 11.14 96.0009 11.14C95.4809 11.14 94.8609 11.205 94.1409 11.335C93.4209 11.465 92.6559 11.67 91.8459 11.95L91.1109 9.85C92.0909 9.48 93.0259 9.215 93.9159 9.055C94.8159 8.895 95.6559 8.815 96.4359 8.815C98.4759 8.815 100.001 9.28 101.011 10.21C102.021 11.13 102.526 12.395 102.526 14.005V21.37ZM95.8509 23.215C96.5909 23.215 97.3009 23.025 97.9809 22.645C98.6609 22.265 99.2209 21.735 99.6609 21.055V17.23H97.5609C95.8909 17.23 94.7059 17.515 94.0059 18.085C93.3059 18.645 92.9559 19.415 92.9559 20.395C92.9559 21.315 93.1959 22.015 93.6759 22.495C94.1559 22.975 94.8809 23.215 95.8509 23.215ZM117.139 9.19V22.81H121.534V25H109.444V22.81H114.259V11.38H109.594V9.19H117.139ZM114.994 1.63C115.594 1.63 116.074 1.815 116.434 2.185C116.804 2.555 116.989 3.005 116.989 3.535C116.989 4.085 116.804 4.55 116.434 4.93C116.074 5.3 115.594 5.485 114.994 5.485C114.404 5.485 113.924 5.3 113.554 4.93C113.194 4.55 113.014 4.085 113.014 3.535C113.014 3.005 113.194 2.555 113.554 2.185C113.924 1.815 114.404 1.63 114.994 1.63ZM129.727 11.17C130.287 10.43 130.942 9.855 131.692 9.445C132.452 9.025 133.277 8.815 134.167 8.815C135.567 8.815 136.702 9.16 137.572 9.85C138.442 10.53 139.077 11.49 139.477 12.73C139.877 13.96 140.077 15.41 140.077 17.08C140.077 18.68 139.837 20.105 139.357 21.355C138.877 22.605 138.172 23.59 137.242 24.31C136.312 25.02 135.167 25.375 133.807 25.375C131.997 25.375 130.582 24.715 129.562 23.395L129.382 25H126.847V2.83L129.727 2.485V11.17ZM133.102 23.11C134.342 23.11 135.297 22.62 135.967 21.64C136.647 20.65 136.987 19.13 136.987 17.08C136.987 15.71 136.852 14.585 136.582 13.705C136.312 12.815 135.912 12.155 135.382 11.725C134.862 11.295 134.222 11.08 133.462 11.08C132.642 11.08 131.917 11.33 131.287 11.83C130.657 12.32 130.137 12.88 129.727 13.51V21.16C130.127 21.76 130.617 22.235 131.197 22.585C131.777 22.935 132.412 23.11 133.102 23.11ZM177.362 4.3L193.427 14.23V16.945L181.982 24.1L180.497 22.015L190.952 15.61L175.997 6.46L177.362 4.3ZM166.712 28.135L164.402 27.1L177.212 0.684999L179.492 1.78L166.712 28.135Z" fill="#607B96"/>
</svg>
